<?xml version="1.0" standalone="no"?>
<!DOCTYPE svg PUBLIC "-//W3C//DTD SVG 20010904//EN"
 "http://www.w3.org/TR/2001/REC-SVG-20010904/DTD/svg10.dtd">
<svg version="1.0" xmlns="http://www.w3.org/2000/svg"
 width="360.000000pt" height="395.000000pt" viewBox="0 0 360.000000 395.000000"
 preserveAspectRatio="xMidYMid meet">

<g transform="translate(0.000000,395.000000) scale(0.100000,-0.100000)"
fill="#000000" stroke="none">
<path d="M2030 3930 c-58 -30 -145 -49 -330 -70 -260 -31 -351 -60 -486 -156
-218 -154 -308 -387 -300 -780 3 -106 7 -150 20 -174 14 -28 16 -76 16 -340 0
-278 2 -314 21 -391 55 -221 206 -423 383 -512 64 -32 224 -81 324 -98 127
-22 367 9 515 66 72 29 167 97 234 169 77 83 122 153 163 254 52 128 59 186
66 597 15 782 12 820 -66 982 -44 90 -96 148 -212 236 -67 51 -69 53 -63 87 4
19 9 47 12 63 6 33 -7 35 -72 7 -65 -28 -78 -27 -63 5 20 44 -2 49 -67 16 -33
-17 -61 -28 -63 -26 -2 2 3 14 12 27 19 27 21 58 4 58 -7 -1 -29 -9 -48 -20z
m208 -452 c37 -44 85 -91 170 -166 114 -100 143 -173 182 -452 6 -47 18 -101
26 -120 11 -26 12 -45 5 -80 -5 -25 -12 -124 -16 -220 -13 -333 -55 -434 -211
-511 -44 -22 -72 -29 -100 -27 -38 3 -39 5 -69 76 -37 88 -62 117 -135 151
-47 21 -70 25 -150 25 -55 1 -104 -4 -116 -11 -16 -9 -30 -9 -65 4 -94 33
-265 -3 -329 -70 -13 -14 -38 -58 -55 -99 -30 -71 -31 -73 -69 -76 -28 -2 -56
5 -100 27 -157 77 -198 179 -211 514 -4 98 -13 202 -20 230 -8 32 -10 56 -4
63 5 6 13 45 19 86 18 144 51 260 106 370 25 49 63 97 141 178 l108 110 380 4
c209 3 396 9 415 14 58 16 71 13 98 -20z m-415 -1430 c12 -6 72 -14 134 -18
125 -7 145 -17 184 -92 43 -83 31 -162 -38 -246 -73 -89 -132 -103 -208 -50
-36 26 -55 32 -95 32 -40 0 -59 -6 -95 -32 -76 -53 -135 -39 -208 50 -69 84
-81 163 -38 246 39 75 59 85 184 92 62 4 121 12 132 18 25 14 22 14 48 0z"/>
<path d="M1332 2865 c-69 -19 -105 -38 -153 -82 -42 -38 -47 -54 -24 -73 13
-11 22 -8 53 23 65 63 120 82 250 83 122 1 149 11 119 41 -23 23 -173 28 -245
8z"/>
<path d="M2053 2874 c-12 -3 -27 -12 -34 -20 -23 -28 5 -37 123 -38 129 -1
175 -16 247 -81 34 -31 44 -35 56 -25 24 20 18 36 -31 79 -65 57 -139 83 -249
86 -49 2 -100 1 -112 -1z"/>
<path d="M1349 2581 c-32 -33 -36 -58 -14 -100 41 -80 165 -43 165 49 0 33
-53 80 -90 80 -22 0 -41 -9 -61 -29z"/>
<path d="M2145 2581 c-16 -4 -40 -13 -51 -19 -28 -15 -74 -70 -74 -88 0 -17
16 -19 26 -3 3 6 25 20 48 30 56 26 150 25 201 -1 52 -26 64 -11 24 29 -46 47
-113 66 -174 52z"/>
<path d="M1533 1993 c-38 -15 10 -148 73 -202 62 -55 112 -75 189 -75 87 0
159 29 211 86 64 71 96 177 58 192 -22 9 -24 8 -24 -9 0 -9 -11 -27 -25 -40
-24 -25 -27 -25 -199 -25 -191 0 -218 6 -237 51 -11 28 -21 33 -46 22z"/>
<path d="M1235 1209 c-244 -36 -479 -158 -645 -336 -65 -69 -160 -205 -160
-229 0 -21 133 -156 234 -238 676 -547 1626 -539 2297 20 90 75 209 199 209
218 0 7 -22 47 -49 88 -161 247 -436 425 -728 472 l-83 13 0 -46 c-1 -94 -46
-167 -142 -231 -312 -208 -861 -64 -861 226 0 30 -3 53 -6 53 -3 -1 -33 -5
-66 -10z"/>
</g>
</svg>
