<?xml version="1.0" standalone="no"?>
<!DOCTYPE svg PUBLIC "-//W3C//DTD SVG 20010904//EN"
 "http://www.w3.org/TR/2001/REC-SVG-20010904/DTD/svg10.dtd">
<svg version="1.0" xmlns="http://www.w3.org/2000/svg"
 width="654.000000pt" height="382.000000pt" viewBox="0 0 654.000000 382.000000"
 preserveAspectRatio="xMidYMid meet">

<g transform="translate(0.000000,382.000000) scale(0.100000,-0.100000)"
fill="#000000" stroke="none">
<path d="M0 3760 l0 -60 145 0 145 0 0 -1790 0 -1790 -145 0 -145 0 0 -60 0
-60 805 0 806 0 -3 58 -3 57 -157 3 -158 3 0 909 0 910 505 0 505 0 0 -910 0
-909 -157 -3 -158 -3 -3 -57 -3 -58 1341 0 1340 0 0 60 0 60 -180 0 -180 0 2
912 c2 636 6 912 14 915 6 2 65 -109 132 -246 68 -137 284 -576 482 -975 l359
-726 626 0 625 0 0 60 0 60 -117 0 -118 1 -164 307 c-277 516 -707 1313 -746
1382 -75 131 -107 202 -95 210 6 4 51 10 100 13 289 21 551 149 696 340 110
145 164 319 164 532 0 472 -263 752 -808 860 -249 49 -222 49 -1900 52 l-1573
4 3 -58 3 -58 158 -3 157 -3 0 -824 0 -825 -505 0 -505 0 0 825 0 824 158 3
157 3 3 58 3 57 -806 0 -805 0 0 -60z m4832 -75 c325 -68 453 -335 435 -905
-9 -290 -52 -442 -156 -554 -125 -134 -309 -190 -646 -198 l-160 -3 -3 834
c-2 661 1 837 10 844 19 13 442 -1 520 -18z"/>
</g>
</svg>
