<svg width="47" height="45" viewBox="0 0 47 45" fill="none" xmlns="http://www.w3.org/2000/svg">
<g clip-path="url(#clip0_589_39873)">
<path d="M23.0232 0C10.3078 0 0 10.0735 0 22.5C0 34.9264 10.3078 44.9999 23.0232 44.9999C35.7387 44.9999 46.0465 34.9264 46.0465 22.5C46.0464 10.0735 35.7385 0 23.0232 0ZM16.8806 33.3777H11.8256V17.4176H16.8806V33.3777ZM14.329 15.3275C12.6781 15.3275 11.3397 14.0089 11.3397 12.3826C11.3397 10.7561 12.6783 9.43764 14.329 9.43764C15.9797 9.43764 17.3181 10.7561 17.3181 12.3826C17.3182 14.009 15.9798 15.3275 14.329 15.3275ZM35.8241 33.3777H30.7936V25C30.7936 22.7022 29.9005 21.4196 28.0414 21.4196C26.018 21.4196 24.961 22.7554 24.961 25V33.3777H20.1127V17.4176H24.961V19.5672C24.961 19.5672 26.4193 16.9308 29.8822 16.9308C33.3452 16.9308 35.8242 18.9972 35.8242 23.272L35.8241 33.3777Z" fill="url(#paint0_linear_589_39873)"/>
</g>
<defs>
<linearGradient id="paint0_linear_589_39873" x1="6.74333" y1="6.59008" x2="38.5547" y2="39.1412" gradientUnits="userSpaceOnUse">
<stop stop-color="#2489BE"/>
<stop offset="1" stop-color="#0575B3"/>
</linearGradient>
<clipPath id="clip0_589_39873">
<rect width="46.0465" height="45" rx="20" fill="white"/>
</clipPath>
</defs>
</svg>