<svg width="40" height="41" viewBox="0 0 40 41" fill="none" xmlns="http://www.w3.org/2000/svg">
<path d="M31.5462 0.407227H8.45375C3.78487 0.407227 0 4.19202 0 8.8609V31.9534C0 36.6223 3.78487 40.4072 8.45375 40.4072H31.5462C36.2151 40.4072 40 36.6223 40 31.9534V8.8609C40 4.19202 36.2151 0.407227 31.5462 0.407227Z" fill="black"/>
<path d="M11.875 11.6572C11.7092 11.6572 11.5503 11.7231 11.4331 11.8403C11.3158 11.9575 11.25 12.1165 11.25 12.2822V27.2822C11.25 27.448 11.3158 27.607 11.4331 27.7242C11.5503 27.8414 11.7092 27.9072 11.875 27.9072H19.0037C18.8625 27.5122 18.8025 27.0872 18.7525 26.6572H12.5V15.4072H26.25V19.1597C26.68 19.2097 27.105 19.2685 27.5 19.411V12.2822C27.5 12.1165 27.4342 11.9575 27.3169 11.8403C27.1997 11.7231 27.0408 11.6572 26.875 11.6572H11.875ZM12.5 12.9072H26.25V14.1572H12.5V12.9072ZM13.75 16.6572V17.9072H15V16.6572H13.75ZM16.25 16.6572V17.9072H17.5V16.6572H16.25ZM18.75 16.6572V17.9072H20V16.6572H18.75ZM21.25 16.6572V17.9072H22.5V16.6572H21.25ZM23.765 16.6572V17.9072H25.015V16.6572H23.765ZM13.75 19.1572V20.4072H15V19.1572H13.75ZM16.25 19.1572V20.4072H17.5V19.1572H16.25ZM18.75 19.1572V20.4072H20V19.1572H18.75ZM21.25 19.1572V20.4072H21.9012C22.1025 20.2735 22.285 20.1172 22.5 20.0047V19.1572H21.25ZM25.625 20.4072C22.525 20.4072 20 22.9322 20 26.0322C20 29.1322 22.525 31.6572 25.625 31.6572C28.725 31.6572 31.25 29.1322 31.25 26.0322C31.25 22.9322 28.725 20.4072 25.625 20.4072ZM25.625 21.4297C26.2297 21.4286 26.8287 21.5468 27.3877 21.7777C27.9466 22.0086 28.4544 22.3476 28.882 22.7752C29.3096 23.2028 29.6486 23.7106 29.8795 24.2696C30.1104 24.8285 30.2287 25.4275 30.2275 26.0322C30.2287 26.637 30.1104 27.236 29.8795 27.7949C29.6486 28.3538 29.3096 28.8616 28.882 29.2893C28.4544 29.7169 27.9466 30.0558 27.3877 30.2867C26.8287 30.5176 26.2297 30.6359 25.625 30.6347C25.0203 30.6359 24.4213 30.5176 23.8623 30.2867C23.3034 30.0558 22.7956 29.7169 22.368 29.2893C21.9404 28.8616 21.6014 28.3538 21.3705 27.7949C21.1396 27.236 21.0213 26.637 21.0225 26.0322C21.0213 25.4275 21.1396 24.8285 21.3705 24.2696C21.6014 23.7106 21.9404 23.2028 22.368 22.7752C22.7956 22.3476 23.3034 22.0086 23.8623 21.7777C24.4213 21.5468 25.0203 21.4286 25.625 21.4297ZM13.75 21.6572V22.9072H15V21.6572H13.75ZM16.25 21.6572V22.9072H17.5V21.6572H16.25ZM18.75 21.6572V22.9072H19.5975C19.71 22.6922 19.8663 22.5122 20 22.311V21.6572H18.75ZM25.6175 22.9047C25.5352 22.9057 25.4539 22.9229 25.3783 22.9554C25.3027 22.9879 25.2342 23.035 25.1768 23.094C25.1195 23.153 25.0743 23.2227 25.044 23.2992C25.0136 23.3757 24.9987 23.4574 25 23.5397V26.0297C25 26.1955 25.0658 26.3545 25.1831 26.4717C25.3003 26.5889 25.4592 26.6547 25.625 26.6547H27.8587C28.0245 26.6547 28.1835 26.5889 28.3007 26.4717C28.4179 26.3545 28.4837 26.1955 28.4837 26.0297C28.4837 25.864 28.4179 25.705 28.3007 25.5878C28.1835 25.4706 28.0245 25.4047 27.8587 25.4047H26.25V23.5397C26.2513 23.4562 26.2359 23.3732 26.2046 23.2957C26.1734 23.2182 26.1269 23.1478 26.0679 23.0886C26.0089 23.0294 25.9387 22.9826 25.8613 22.951C25.784 22.9195 25.7011 22.9037 25.6175 22.9047ZM13.75 24.1572V25.4072H15V24.1572H13.75ZM16.25 24.1572V25.4072H17.5V24.1572H16.25Z" fill="white"/>
</svg>
