<svg width="21" height="21" viewBox="0 0 21 21" fill="none" xmlns="http://www.w3.org/2000/svg">
<path d="M1.4043 0.25C1.23854 0.25 1.07957 0.315848 0.962355 0.433058C0.845145 0.550269 0.779297 0.70924 0.779297 0.875L0.779297 15.875C0.779297 16.0408 0.845145 16.1997 0.962355 16.3169C1.07957 16.4342 1.23854 16.5 1.4043 16.5H8.53305C8.3918 16.105 8.3318 15.68 8.2818 15.25H2.0293V4H15.7793V7.7525C16.2093 7.8025 16.6343 7.86125 17.0293 8.00375V0.875C17.0293 0.70924 16.9634 0.550269 16.8462 0.433058C16.729 0.315848 16.5701 0.25 16.4043 0.25H1.4043ZM2.0293 1.5H15.7793V2.75H2.0293V1.5ZM3.2793 5.25V6.5H4.5293V5.25H3.2793ZM5.7793 5.25V6.5H7.0293V5.25H5.7793ZM8.2793 5.25V6.5H9.5293V5.25H8.2793ZM10.7793 5.25V6.5H12.0293V5.25H10.7793ZM13.2943 5.25V6.5H14.5443V5.25H13.2943ZM3.2793 7.75V9H4.5293V7.75H3.2793ZM5.7793 7.75V9H7.0293V7.75H5.7793ZM8.2793 7.75V9H9.5293V7.75H8.2793ZM10.7793 7.75V9H11.4305C11.6318 8.86625 11.8143 8.71 12.0293 8.5975V7.75H10.7793ZM15.1543 9C12.0543 9 9.5293 11.525 9.5293 14.625C9.5293 17.725 12.0543 20.25 15.1543 20.25C18.2543 20.25 20.7793 17.725 20.7793 14.625C20.7793 11.525 18.2543 9 15.1543 9ZM15.1543 10.0225C15.759 10.0213 16.358 10.1396 16.917 10.3705C17.4759 10.6014 17.9837 10.9404 18.4113 11.368C18.8389 11.7956 19.1779 12.3034 19.4088 12.8623C19.6397 13.4213 19.7579 14.0203 19.7568 14.625C19.7579 15.2297 19.6397 15.8287 19.4088 16.3877C19.1779 16.9466 18.8389 17.4544 18.4113 17.882C17.9837 18.3096 17.4759 18.6486 16.917 18.8795C16.358 19.1104 15.759 19.2287 15.1543 19.2275C14.5496 19.2287 13.9506 19.1104 13.3916 18.8795C12.8327 18.6486 12.3249 18.3096 11.8973 17.882C11.4697 17.4544 11.1307 16.9466 10.8998 16.3877C10.6689 15.8287 10.5506 15.2297 10.5518 14.625C10.5506 14.0203 10.6689 13.4213 10.8998 12.8623C11.1307 12.3034 11.4697 11.7956 11.8973 11.368C12.3249 10.9404 12.8327 10.6014 13.3916 10.3705C13.9506 10.1396 14.5496 10.0213 15.1543 10.0225ZM3.2793 10.25V11.5H4.5293V10.25H3.2793ZM5.7793 10.25V11.5H7.0293V10.25H5.7793ZM8.2793 10.25V11.5H9.1268C9.2393 11.285 9.39555 11.105 9.5293 10.9037V10.25H8.2793ZM15.1468 11.4975C15.0645 11.4985 14.9832 11.5157 14.9076 11.5482C14.832 11.5806 14.7635 11.6277 14.7061 11.6867C14.6488 11.7457 14.6036 11.8155 14.5733 11.892C14.5429 11.9685 14.528 12.0502 14.5293 12.1325V14.6225C14.5293 14.7883 14.5951 14.9472 14.7124 15.0644C14.8296 15.1817 14.9885 15.2475 15.1543 15.2475H17.388C17.5538 15.2475 17.7128 15.1817 17.83 15.0644C17.9472 14.9472 18.013 14.7883 18.013 14.6225C18.013 14.4567 17.9472 14.2978 17.83 14.1806C17.7128 14.0633 17.5538 13.9975 17.388 13.9975H15.7793V12.1325C15.7806 12.049 15.7652 11.966 15.7339 11.8885C15.7027 11.811 15.6562 11.7406 15.5972 11.6814C15.5382 11.6222 15.468 11.5754 15.3906 11.5438C15.3133 11.5122 15.2304 11.4965 15.1468 11.4975ZM3.2793 12.75V14H4.5293V12.75H3.2793ZM5.7793 12.75V14H7.0293V12.75H5.7793Z" fill="white"/>
</svg>
