<svg width="27" height="32" viewBox="0 0 27 32" fill="none" xmlns="http://www.w3.org/2000/svg">
<path d="M25.2907 17C25.2907 23.9263 19.9428 29.5 13.3953 29.5C6.8479 29.5 1.5 23.9263 1.5 17C1.5 10.0737 6.8479 4.5 13.3953 4.5C19.9428 4.5 25.2907 10.0737 25.2907 17Z" fill="#0D0D0D" stroke="white"/>
<path d="M17.4258 7.99023H14.68C13.0505 7.99023 11.238 8.70901 11.238 11.1862C11.246 12.0494 11.238 12.8761 11.238 13.8064H9.35291V16.9525H11.2963V26.0096H14.8675V16.8927H17.2246L17.4379 13.7976H14.806C14.806 13.7976 14.8119 12.4207 14.806 12.0209C14.806 11.0419 15.7772 11.098 15.8357 11.098C16.2978 11.098 17.1965 11.0994 17.4272 11.098V7.99023H17.4258Z" fill="white"/>
</svg>