<svg width="41" height="43" viewBox="0 0 41 43" fill="none" xmlns="http://www.w3.org/2000/svg">
              <g clip-path="url(#clip0_589_39495)">
                <path
                  d="M20.5 43C31.8218 43 41 33.3741 41 21.5C41 9.62588 31.8218 0 20.5 0C9.17816 0 0 9.62588 0 21.5C0 33.3741 9.17816 43 20.5 43Z"
                  fill="#3C5A9A" />
                <path
                  d="M27.1639 6.59961H22.6226C19.9277 6.59961 16.9302 7.78835 16.9302 11.8853C16.9433 13.3129 16.9302 14.68 16.9302 16.2187H13.8125V21.4218H17.0266V36.4008H22.9328V21.323H26.8311L27.1838 16.2041H22.831C22.831 16.2041 22.8408 13.927 22.831 13.2657C22.831 11.6467 24.4373 11.7394 24.534 11.7394C25.2983 11.7394 26.7846 11.7417 27.1661 11.7394V6.59961H27.1639Z"
                  fill="white" />
              </g>
              <defs>
                <clipPath id="clip0_589_39495">
                  <rect width="41" height="43" fill="white" />
                </clipPath>
              </defs>
            </svg>