<svg width="30" height="30" viewBox="0 0 30 30" fill="none" xmlns="http://www.w3.org/2000/svg">
<path d="M1 5.3565H1.142C1.36027 6.2754 1.85806 7.09018 2.55672 7.67213C3.25537 8.25407 4.11507 8.57 5 8.57C5.88492 8.57 6.74463 8.25407 7.44328 7.67213C8.14194 7.09018 8.63973 6.2754 8.858 5.3565H29C29.2652 5.3565 29.5196 5.24361 29.7071 5.04266C29.8946 4.84172 30 4.56918 30 4.285C30 4.00082 29.8946 3.72828 29.7071 3.52733C29.5196 3.32639 29.2652 3.2135 29 3.2135H8.858C8.63973 2.2946 8.14194 1.47981 7.44328 0.89787C6.74463 0.315927 5.88492 0 5 0C4.11507 0 3.25537 0.315927 2.55672 0.89787C1.85806 1.47981 1.36027 2.2946 1.142 3.2135H1C0.734783 3.2135 0.48043 3.32639 0.292893 3.52733C0.105357 3.72828 0 4.00082 0 4.285C0 4.56918 0.105357 4.84172 0.292893 5.04266C0.48043 5.24361 0.734783 5.3565 1 5.3565ZM5 2.142C5.39556 2.142 5.78224 2.26768 6.11114 2.50316C6.44004 2.73863 6.69638 3.07333 6.84776 3.46491C6.99913 3.85649 7.03874 4.28737 6.96157 4.70308C6.8844 5.11878 6.69392 5.50062 6.41421 5.80033C6.13451 6.10003 5.77814 6.30413 5.39018 6.38682C5.00222 6.46951 4.60008 6.42707 4.23463 6.26487C3.86918 6.10267 3.55682 5.828 3.33706 5.47558C3.1173 5.12317 3 4.70884 3 4.285C3 3.71664 3.21071 3.17156 3.58579 2.76967C3.96086 2.36778 4.46957 2.142 5 2.142ZM29 13.9285H28.858C28.6397 13.0096 28.1419 12.1948 27.4433 11.6129C26.7446 11.0309 25.8849 10.715 25 10.715C24.1151 10.715 23.2554 11.0309 22.5567 11.6129C21.8581 12.1948 21.3603 13.0096 21.142 13.9285H1C0.734783 13.9285 0.48043 14.0414 0.292893 14.2423C0.105357 14.4433 0 14.7158 0 15C0 15.2842 0.105357 15.5567 0.292893 15.7577C0.48043 15.9586 0.734783 16.0715 1 16.0715H21.142C21.3603 16.9904 21.8581 17.8052 22.5567 18.3871C23.2554 18.9691 24.1151 19.285 25 19.285C25.8849 19.285 26.7446 18.9691 27.4433 18.3871C28.1419 17.8052 28.6397 16.9904 28.858 16.0715H29C29.2652 16.0715 29.5196 15.9586 29.7071 15.7577C29.8946 15.5567 30 15.2842 30 15C30 14.7158 29.8946 14.4433 29.7071 14.2423C29.5196 14.0414 29.2652 13.9285 29 13.9285ZM25 17.143C24.6044 17.143 24.2178 17.0173 23.8889 16.7818C23.56 16.5464 23.3036 16.2117 23.1522 15.8201C23.0009 15.4285 22.9613 14.9976 23.0384 14.5819C23.1156 14.1662 23.3061 13.7844 23.5858 13.4847C23.8655 13.185 24.2219 12.9809 24.6098 12.8982C24.9978 12.8155 25.3999 12.8579 25.7654 13.0201C26.1308 13.1823 26.4432 13.457 26.6629 13.8094C26.8827 14.1618 27 14.5762 27 15C27 15.5684 26.7893 16.1134 26.4142 16.5153C26.0391 16.9172 25.5304 17.143 25 17.143ZM29 24.6435H18.858C18.6397 23.7246 18.1419 22.9098 17.4433 22.3279C16.7446 21.7459 15.8849 21.43 15 21.43C14.1151 21.43 13.2554 21.7459 12.5567 22.3279C11.8581 22.9098 11.3603 23.7246 11.142 24.6435H1C0.734783 24.6435 0.48043 24.7564 0.292893 24.9573C0.105357 25.1583 0 25.4308 0 25.715C0 25.9992 0.105357 26.2717 0.292893 26.4727C0.48043 26.6736 0.734783 26.7865 1 26.7865H11.142C11.3603 27.7054 11.8581 28.5202 12.5567 29.1021C13.2554 29.6841 14.1151 30 15 30C15.8849 30 16.7446 29.6841 17.4433 29.1021C18.1419 28.5202 18.6397 27.7054 18.858 26.7865H29C29.2652 26.7865 29.5196 26.6736 29.7071 26.4727C29.8946 26.2717 30 25.9992 30 25.715C30 25.4308 29.8946 25.1583 29.7071 24.9573C29.5196 24.7564 29.2652 24.6435 29 24.6435ZM15 27.858C14.6044 27.858 14.2178 27.7323 13.8889 27.4968C13.56 27.2614 13.3036 26.9267 13.1522 26.5351C13.0009 26.1435 12.9613 25.7126 13.0384 25.2969C13.1156 24.8812 13.3061 24.4994 13.5858 24.1997C13.8655 23.9 14.2219 23.6959 14.6098 23.6132C14.9978 23.5305 15.3999 23.5729 15.7654 23.7351C16.1308 23.8973 16.4432 24.172 16.6629 24.5244C16.8827 24.8768 17 25.2912 17 25.715C17 26.2834 16.7893 26.8284 16.4142 27.2303C16.0391 27.6322 15.5304 27.858 15 27.858Z" fill="black"/>
</svg>