<svg width="49" height="55" viewBox="0 0 49 55" fill="none" xmlns="http://www.w3.org/2000/svg">
<path fill-rule="evenodd" clip-rule="evenodd" d="M35.728 45.8359C35.9994 45.8418 36.2692 45.7869 36.5215 45.6744C36.7738 45.5619 37.0035 45.3941 37.1973 45.1807C37.3912 44.9673 37.5451 44.7127 37.6502 44.4317C37.7553 44.1508 37.8095 43.8491 37.8095 43.5444C37.8095 43.2397 37.7553 42.938 37.6502 42.6571C37.5451 42.3761 37.3912 42.1215 37.1973 41.9081C37.0035 41.6948 36.7738 41.5269 36.5215 41.4144C36.2692 41.3019 35.9994 41.247 35.728 41.2529C35.1934 41.2645 34.6842 41.511 34.3098 41.9395C33.9353 42.368 33.7256 42.9442 33.7256 43.5444C33.7256 44.1446 33.9353 44.7208 34.3098 45.1493C34.6842 45.5778 35.1934 45.8243 35.728 45.8359ZM35.728 48.1279C36.811 48.1279 37.8496 47.645 38.6154 46.7854C39.3812 45.9259 39.8115 44.76 39.8115 43.5444C39.8115 42.3288 39.3812 41.163 38.6154 40.3034C37.8496 39.4438 36.811 38.9609 35.728 38.9609C34.645 38.9609 33.6063 39.4438 32.8405 40.3034C32.0748 41.163 31.6445 42.3288 31.6445 43.5444C31.6445 44.76 32.0748 45.9259 32.8405 46.7854C33.6063 47.645 34.645 48.1279 35.728 48.1279Z" fill="#BE111F"/>
<path fill-rule="evenodd" clip-rule="evenodd" d="M39.685 44.6904C39.8576 43.9387 39.8576 43.1501 39.685 42.3984H41.8556C42.1263 42.3984 42.386 42.5192 42.5775 42.7341C42.769 42.949 42.8765 43.2405 42.8765 43.5444C42.8765 43.8483 42.769 44.1398 42.5775 44.3547C42.386 44.5697 42.1263 44.6904 41.8556 44.6904H39.685ZM31.7761 44.6904H7.14596C6.87519 44.6904 6.6155 44.5697 6.42403 44.3547C6.23257 44.1398 6.125 43.8483 6.125 43.5444C6.125 43.2405 6.23257 42.949 6.42403 42.7341C6.6155 42.5192 6.87519 42.3984 7.14596 42.3984H31.7746C31.6019 43.1501 31.6019 43.9387 31.7746 44.6904H31.7761Z" fill="white"/>
<path fill-rule="evenodd" clip-rule="evenodd" d="M35.728 13.75C35.9994 13.7559 36.2692 13.701 36.5215 13.5885C36.7738 13.476 37.0035 13.3081 37.1973 13.0947C37.3912 12.8814 37.5451 12.6268 37.6502 12.3458C37.7553 12.0649 37.8095 11.7632 37.8095 11.4585C37.8095 11.1538 37.7553 10.8521 37.6502 10.5711C37.5451 10.2902 37.3912 10.0356 37.1973 9.82221C37.0035 9.60883 36.7738 9.44098 36.5215 9.32847C36.2692 9.21596 35.9994 9.16105 35.728 9.16695C35.1934 9.17857 34.6842 9.42511 34.3098 9.85359C33.9353 10.2821 33.7256 10.8583 33.7256 11.4585C33.7256 12.0587 33.9353 12.6349 34.3098 13.0634C34.6842 13.4918 35.1934 13.7384 35.728 13.75ZM35.728 16.042C36.811 16.042 37.8496 15.5591 38.6154 14.6995C39.3812 13.8399 39.8115 12.6741 39.8115 11.4585C39.8115 10.2429 39.3812 9.07704 38.6154 8.21747C37.8496 7.3579 36.811 6.875 35.728 6.875C34.645 6.875 33.6063 7.3579 32.8405 8.21747C32.0748 9.07704 31.6445 10.2429 31.6445 11.4585C31.6445 12.6741 32.0748 13.8399 32.8405 14.6995C33.6063 15.5591 34.645 16.042 35.728 16.042Z" fill="#BE111F"/>
<path fill-rule="evenodd" clip-rule="evenodd" d="M39.685 12.6045C39.8576 11.8528 39.8576 11.0642 39.685 10.3125H41.8556C42.1263 10.3125 42.386 10.4332 42.5775 10.6481C42.769 10.8631 42.8765 11.1545 42.8765 11.4585C42.8765 11.7624 42.769 12.0539 42.5775 12.2688C42.386 12.4837 42.1263 12.6045 41.8556 12.6045H39.685ZM31.7761 12.6045H7.14596C6.87519 12.6045 6.6155 12.4837 6.42403 12.2688C6.23257 12.0539 6.125 11.7624 6.125 11.4585C6.125 11.1545 6.23257 10.8631 6.42403 10.6481C6.6155 10.4332 6.87519 10.3125 7.14596 10.3125H31.7746C31.6019 11.0642 31.6019 11.8528 31.7746 12.6045H31.7761Z" fill="white"/>
<path fill-rule="evenodd" clip-rule="evenodd" d="M14.2905 29.7891C14.5619 29.795 14.8317 29.7401 15.084 29.6275C15.3363 29.515 15.566 29.3472 15.7598 29.1338C15.9537 28.9204 16.1076 28.6658 16.2127 28.3849C16.3178 28.1039 16.372 27.8023 16.372 27.4975C16.372 27.1928 16.3178 26.8912 16.2127 26.6102C16.1076 26.3293 15.9537 26.0746 15.7598 25.8613C15.566 25.6479 15.3363 25.48 15.084 25.3675C14.8317 25.255 14.5619 25.2001 14.2905 25.206C13.7559 25.2176 13.2467 25.4642 12.8723 25.8927C12.4978 26.3211 12.2881 26.8974 12.2881 27.4975C12.2881 28.0977 12.4978 28.674 12.8723 29.1024C13.2467 29.5309 13.7559 29.7774 14.2905 29.7891ZM14.2905 32.081C15.3735 32.081 16.4121 31.5981 17.1779 30.7385C17.9437 29.879 18.374 28.7132 18.374 27.4975C18.374 26.2819 17.9437 25.1161 17.1779 24.2565C16.4121 23.397 15.3735 22.9141 14.2905 22.9141C13.2075 22.9141 12.1688 23.397 11.403 24.2565C10.6373 25.1161 10.207 26.2819 10.207 27.4975C10.207 28.7132 10.6373 29.879 11.403 30.7385C12.1688 31.5981 13.2075 32.081 14.2905 32.081Z" fill="#BE111F"/>
<path fill-rule="evenodd" clip-rule="evenodd" d="M18.2475 28.6435C18.4201 27.8918 18.4201 27.1033 18.2475 26.3516H41.8556C42.1263 26.3516 42.386 26.4723 42.5775 26.6872C42.769 26.9021 42.8765 27.1936 42.8765 27.4975C42.8765 27.8015 42.769 28.093 42.5775 28.3079C42.386 28.5228 42.1263 28.6435 41.8556 28.6435H18.2475ZM10.3386 28.6435H7.14596C6.87519 28.6435 6.6155 28.5228 6.42403 28.3079C6.23257 28.093 6.125 27.8015 6.125 27.4975C6.125 27.1936 6.23257 26.9021 6.42403 26.6872C6.6155 26.4723 6.87519 26.3516 7.14596 26.3516H10.3371C10.1644 27.1033 10.1644 27.8918 10.3371 28.6435H10.3386Z" fill="white"/>
</svg>
