<svg width="41" height="43" viewBox="0 0 41 43" fill="none"
              xmlns="http://www.w3.org/2000/svg">
              <g clip-path="url(#clip0_589_39401)">
                <mask id="mask0_589_39401" style="mask-type:luminance" maskUnits="userSpaceOnUse" x="0" y="0" width="41"
                  height="43">
                  <path
                    d="M20.5 43C31.8218 43 41 33.3741 41 21.5C41 9.62588 31.8218 0 20.5 0C9.17816 0 0 9.62588 0 21.5C0 33.3741 9.17816 43 20.5 43Z"
                    fill="white" />
                </mask>
                <g mask="url(#mask0_589_39401)">
                  <path
                    d="M8.80859 87.0078C33.1329 87.0078 52.8516 66.3272 52.8516 40.8164C52.8516 15.3056 33.1329 -5.375 8.80859 -5.375C-15.5157 -5.375 -35.2344 15.3056 -35.2344 40.8164C-35.2344 66.3272 -15.5157 87.0078 8.80859 87.0078Z"
                    fill="#0D0D0D" />
                </g>
                <path
                  d="M26.2656 17.1328C27.1501 17.1328 27.8672 16.3808 27.8672 15.4531C27.8672 14.5255 27.1501 13.7734 26.2656 13.7734C25.3811 13.7734 24.6641 14.5255 24.6641 15.4531C24.6641 16.3808 25.3811 17.1328 26.2656 17.1328Z"
                  fill="white" />
                <path
                  d="M20.5 16.125C19.4864 16.125 18.4955 16.4402 17.6527 17.0309C16.8099 17.6215 16.153 18.4609 15.7651 19.4431C15.3772 20.4252 15.2757 21.506 15.4735 22.5486C15.6712 23.5913 16.1593 24.549 16.8761 25.3007C17.5928 26.0524 18.506 26.5643 19.5002 26.7717C20.4943 26.9791 21.5248 26.8727 22.4613 26.4659C23.3977 26.059 24.1981 25.3701 24.7613 24.4862C25.3244 23.6023 25.625 22.5631 25.625 21.5C25.625 20.0745 25.085 18.7073 24.1239 17.6993C23.1628 16.6913 21.8592 16.125 20.5 16.125ZM20.5 24.1875C19.9932 24.1875 19.4978 24.0299 19.0764 23.7346C18.655 23.4393 18.3265 23.0195 18.1326 22.5285C17.9386 22.0374 17.8879 21.497 17.9867 20.9757C18.0856 20.4544 18.3297 19.9755 18.688 19.5997C19.0464 19.2238 19.503 18.9678 20.0001 18.8641C20.4972 18.7604 21.0124 18.8137 21.4806 19.0171C21.9489 19.2205 22.3491 19.5649 22.6306 20.0069C22.9122 20.4489 23.0625 20.9685 23.0625 21.5C23.0625 22.2128 22.7925 22.8963 22.312 23.4003C21.8314 23.9044 21.1796 24.1875 20.5 24.1875Z"
                  fill="white" />
                <path
                  d="M26.9062 10.75H14.0938C11.9709 10.75 10.25 12.5549 10.25 14.7812V28.2188C10.25 30.4451 11.9709 32.25 14.0938 32.25H26.9062C29.0291 32.25 30.75 30.4451 30.75 28.2188V14.7812C30.75 12.5549 29.0291 10.75 26.9062 10.75Z"
                  stroke="white" stroke-width="2" stroke-miterlimit="10" />
              </g>
              <g clip-path="url(#clip1_589_39401)">
                <mask id="mask1_589_39401" style="mask-type:luminance" maskUnits="userSpaceOnUse" x="0" y="0" width="41"
                  height="43">
                  <path
                    d="M20.5 43C31.8218 43 41 33.3741 41 21.5C41 9.62588 31.8218 0 20.5 0C9.17816 0 0 9.62588 0 21.5C0 33.3741 9.17816 43 20.5 43Z"
                    fill="white" />
                </mask>
                <g mask="url(#mask1_589_39401)">
                  <path
                    d="M8.80859 87.0078C33.1329 87.0078 52.8516 66.3272 52.8516 40.8164C52.8516 15.3056 33.1329 -5.375 8.80859 -5.375C-15.5157 -5.375 -35.2344 15.3056 -35.2344 40.8164C-35.2344 66.3272 -15.5157 87.0078 8.80859 87.0078Z"
                    fill="url(#paint0_radial_589_39401)" />
                </g>
                <path
                  d="M26.2656 17.1328C27.1501 17.1328 27.8672 16.3808 27.8672 15.4531C27.8672 14.5255 27.1501 13.7734 26.2656 13.7734C25.3811 13.7734 24.6641 14.5255 24.6641 15.4531C24.6641 16.3808 25.3811 17.1328 26.2656 17.1328Z"
                  fill="white" />
                <path
                  d="M20.5 16.125C19.4864 16.125 18.4955 16.4402 17.6527 17.0309C16.8099 17.6215 16.153 18.4609 15.7651 19.4431C15.3772 20.4252 15.2757 21.506 15.4735 22.5486C15.6712 23.5913 16.1593 24.549 16.8761 25.3007C17.5928 26.0524 18.506 26.5643 19.5002 26.7717C20.4943 26.9791 21.5248 26.8727 22.4613 26.4659C23.3977 26.059 24.1981 25.3701 24.7613 24.4862C25.3244 23.6023 25.625 22.5631 25.625 21.5C25.625 20.0745 25.085 18.7073 24.1239 17.6993C23.1628 16.6913 21.8592 16.125 20.5 16.125ZM20.5 24.1875C19.9932 24.1875 19.4978 24.0299 19.0764 23.7346C18.655 23.4393 18.3265 23.0195 18.1326 22.5285C17.9386 22.0374 17.8879 21.497 17.9867 20.9757C18.0856 20.4544 18.3297 19.9755 18.688 19.5997C19.0464 19.2238 19.503 18.9678 20.0001 18.8641C20.4972 18.7604 21.0124 18.8137 21.4806 19.0171C21.9489 19.2205 22.3491 19.5649 22.6306 20.0069C22.9122 20.4489 23.0625 20.9685 23.0625 21.5C23.0625 22.2128 22.7925 22.8963 22.312 23.4003C21.8314 23.9044 21.1796 24.1875 20.5 24.1875Z"
                  fill="white" />
                <path
                  d="M26.9062 10.75H14.0938C11.9709 10.75 10.25 12.5549 10.25 14.7812V28.2188C10.25 30.4451 11.9709 32.25 14.0938 32.25H26.9062C29.0291 32.25 30.75 30.4451 30.75 28.2188V14.7812C30.75 12.5549 29.0291 10.75 26.9062 10.75Z"
                  stroke="white" stroke-width="2" stroke-miterlimit="10" />
              </g>
              <defs>
                <radialGradient id="paint0_radial_589_39401" cx="0" cy="0" r="1" gradientUnits="userSpaceOnUse"
                  gradientTransform="translate(8.80859 40.8164) scale(44.043 46.1914)">
                  <stop stop-color="#FFD676" />
                  <stop offset="0.25" stop-color="#F2A454" />
                  <stop offset="0.38" stop-color="#F05C3C" />
                  <stop offset="0.7" stop-color="#C22F86" />
                  <stop offset="0.96" stop-color="#6666AD" />
                  <stop offset="0.99" stop-color="#5C6CB2" />
                </radialGradient>
                <clipPath id="clip0_589_39401">
                  <rect width="41" height="43" fill="white" />
                </clipPath>
                <clipPath id="clip1_589_39401">
                  <rect width="41" height="43" fill="white" />
                </clipPath>
              </defs>
            </svg>