<?xml version="1.0" standalone="no"?>
<!DOCTYPE svg PUBLIC "-//W3C//DTD SVG 20010904//EN"
 "http://www.w3.org/TR/2001/REC-SVG-20010904/DTD/svg10.dtd">
<svg version="1.0" xmlns="http://www.w3.org/2000/svg"
 width="29" height="34" viewBox="0 0 204.000000 192.000000"
 preserveAspectRatio="xMidYMid meet">

<g transform="translate(0.000000,192.000000) scale(0.100000,-0.100000)"
fill="#000000" stroke="none">
<path d="M845 1805 c-544 -124 -835 -705 -604 -1203 145 -314 441 -504 784
-504 249 0 456 90 631 275 328 344 310 882 -40 1215 -92 88 -197 150 -324 192
-89 30 -109 33 -242 36 -98 2 -165 -1 -205 -11z m503 -338 c101 -36 172 -114
192 -213 7 -35 10 -151 8 -327 -3 -254 -4 -275 -25 -319 -29 -63 -93 -123
-161 -150 -54 -21 -69 -22 -337 -22 -268 0 -283 1 -337 22 -68 27 -132 87
-161 150 -21 45 -22 61 -22 352 0 268 2 310 17 343 45 99 130 161 240 177 35
5 171 7 303 6 186 -2 250 -6 283 -19z"/>
<path d="M780 1381 c-94 -13 -141 -49 -168 -130 -16 -45 -16 -521 -1 -576 16
-59 46 -95 98 -119 43 -20 62 -21 316 -21 263 0 271 1 317 23 98 48 108 86
108 402 0 315 -12 360 -109 403 -41 19 -69 21 -276 23 -126 1 -255 -1 -285 -5z
m573 -99 c40 -35 8 -102 -49 -102 -66 0 -85 87 -25 116 26 13 46 9 74 -14z
m-218 -76 c134 -62 196 -218 140 -352 -19 -46 -82 -112 -129 -136 -63 -32
-159 -36 -224 -8 -94 41 -172 154 -172 250 0 56 31 132 73 177 84 91 207 119
312 69z"/>
<path d="M960 1123 c-63 -25 -110 -95 -110 -163 0 -50 32 -113 71 -140 44 -32
132 -39 184 -15 108 52 124 219 28 292 -28 22 -48 28 -97 30 -33 1 -68 0 -76
-4z"/>
</g>
</svg>
