<svg width="27" height="32" viewBox="0 0 27 32" fill="none" xmlns="http://www.w3.org/2000/svg">
<g clip-path="url(#clip0_854_17951)">
<mask id="mask0_854_17951" style="mask-type:luminance" maskUnits="userSpaceOnUse" x="0" y="4" width="26" height="26">
<path d="M24.8023 17C24.8023 23.9263 19.4544 29.5 12.9069 29.5C6.3595 29.5 1.0116 23.9263 1.0116 17C1.0116 10.0737 6.3595 4.5 12.9069 4.5C19.4544 4.5 24.8023 10.0737 24.8023 17Z" fill="white" stroke="white"/>
</mask>
<g mask="url(#mask0_854_17951)">
<path d="M5.83772 56.6094C20.5454 56.6094 32.4684 44.1048 32.4684 28.6797C32.4684 13.2545 20.5454 0.75 5.83772 0.75C-8.86997 0.75 -20.7929 13.2545 -20.7929 28.6797C-20.7929 44.1048 -8.86997 56.6094 5.83772 56.6094Z" fill="#0D0D0D"/>
<path d="M24.8023 17C24.8023 23.9263 19.4544 29.5 12.9069 29.5C6.3595 29.5 1.0116 23.9263 1.0116 17C1.0116 10.0737 6.3595 4.5 12.9069 4.5C19.4544 4.5 24.8023 10.0737 24.8023 17Z" fill="black" stroke="white"/>
</g>
<path d="M16.3932 14.3594C16.928 14.3594 17.3616 13.9047 17.3616 13.3438C17.3616 12.7828 16.928 12.3281 16.3932 12.3281C15.8584 12.3281 15.4248 12.7828 15.4248 13.3438C15.4248 13.9047 15.8584 14.3594 16.3932 14.3594Z" fill="white"/>
<path d="M12.9069 13.75C12.2941 13.75 11.6949 13.9406 11.1853 14.2977C10.6757 14.6548 10.2785 15.1624 10.044 15.7563C9.80945 16.3501 9.74808 17.0036 9.86765 17.634C9.98722 18.2645 10.2824 18.8436 10.7157 19.2981C11.1491 19.7526 11.7013 20.0622 12.3024 20.1876C12.9035 20.313 13.5266 20.2486 14.0928 20.0026C14.6591 19.7566 15.143 19.3401 15.4835 18.8056C15.824 18.2711 16.0058 17.6428 16.0058 17C16.0058 16.138 15.6793 15.3114 15.0982 14.7019C14.517 14.0924 13.7288 13.75 12.9069 13.75ZM12.9069 18.625C12.6005 18.625 12.3009 18.5297 12.0461 18.3511C11.7913 18.1726 11.5927 17.9188 11.4755 17.6219C11.3582 17.3249 11.3275 16.9982 11.3873 16.683C11.4471 16.3678 11.5947 16.0782 11.8113 15.851C12.028 15.6237 12.3041 15.4689 12.6047 15.4062C12.9052 15.3435 13.2168 15.3757 13.4999 15.4987C13.783 15.6217 14.025 15.83 14.1952 16.0972C14.3655 16.3644 14.4564 16.6786 14.4564 17C14.4564 17.431 14.2931 17.8443 14.0025 18.149C13.712 18.4538 13.3179 18.625 12.9069 18.625Z" fill="white"/>
<path d="M16.7804 10.5H9.03336C7.74978 10.5 6.70923 11.5913 6.70923 12.9375V21.0625C6.70923 22.4087 7.74978 23.5 9.03336 23.5H16.7804C18.064 23.5 19.1046 22.4087 19.1046 21.0625V12.9375C19.1046 11.5913 18.064 10.5 16.7804 10.5Z" stroke="white" stroke-width="2" stroke-miterlimit="10"/>
</g>
<defs>
<clipPath id="clip0_854_17951">
<rect width="27" height="32" fill="white"/>
</clipPath>
</defs>
</svg>