<svg width="41" height="43" viewBox="0 0 41 43" fill="none"
              xmlns="http://www.w3.org/2000/svg">
              <g clip-path="url(#clip0_589_39394)">
                <path
                  d="M20.5 0C9.17807 0 0 9.62578 0 21.5C0 33.3741 9.17807 42.9999 20.5 42.9999C31.8218 42.9999 41 33.3741 41 21.5C40.9999 9.62578 31.8217 0 20.5 0ZM15.0305 31.8942H10.5296V16.6435H15.0305V31.8942ZM12.7586 14.6463C11.2886 14.6463 10.097 13.3863 10.097 11.8323C10.097 10.2781 11.2888 9.01819 12.7586 9.01819C14.2284 9.01819 15.4201 10.2781 15.4201 11.8323C15.4202 13.3864 14.2285 14.6463 12.7586 14.6463ZM31.8979 31.8942H27.4188V23.8889C27.4188 21.6932 26.6236 20.4676 24.9682 20.4676C23.1665 20.4676 22.2253 21.7441 22.2253 23.8889V31.8942H17.9084V16.6435H22.2253V18.6975C22.2253 18.6975 23.5239 16.1783 26.6073 16.1783C29.6907 16.1783 31.898 18.1529 31.898 22.2377L31.8979 31.8942Z"
                  fill="#0D0D0D" />
              </g>
              <g clip-path="url(#clip1_589_39394)">
                <path
                  d="M20.5 0C9.17807 0 0 9.62578 0 21.5C0 33.3741 9.17807 42.9999 20.5 42.9999C31.8218 42.9999 41 33.3741 41 21.5C40.9999 9.62578 31.8217 0 20.5 0ZM15.0305 31.8942H10.5296V16.6435H15.0305V31.8942ZM12.7586 14.6463C11.2886 14.6463 10.097 13.3863 10.097 11.8323C10.097 10.2781 11.2888 9.01819 12.7586 9.01819C14.2284 9.01819 15.4201 10.2781 15.4201 11.8323C15.4202 13.3864 14.2285 14.6463 12.7586 14.6463ZM31.8979 31.8942H27.4188V23.8889C27.4188 21.6932 26.6236 20.4676 24.9682 20.4676C23.1665 20.4676 22.2253 21.7441 22.2253 23.8889V31.8942H17.9084V16.6435H22.2253V18.6975C22.2253 18.6975 23.5239 16.1783 26.6073 16.1783C29.6907 16.1783 31.898 18.1529 31.898 22.2377L31.8979 31.8942Z"
                  fill="url(#paint0_linear_589_39394)" />
              </g>
              <defs>
                <linearGradient id="paint0_linear_589_39394" x1="6.00429" y1="6.29718" x2="36.3754" y2="35.2557"
                  gradientUnits="userSpaceOnUse">
                  <stop stop-color="#2489BE" />
                  <stop offset="1" stop-color="#0575B3" />
                </linearGradient>
                <clipPath id="clip0_589_39394">
                  <rect width="41" height="43" fill="white" />
                </clipPath>
                <clipPath id="clip1_589_39394">
                  <rect width="41" height="43" fill="white" />
                </clipPath>
              </defs>
            </svg>