<svg width="27" height="32" viewBox="0 0 27 32" fill="none" xmlns="http://www.w3.org/2000/svg">
<path d="M13.1395 4C6.29367 4 0.744141 9.82024 0.744141 17C0.744141 24.1797 6.29367 29.9999 13.1395 29.9999C19.9853 29.9999 25.5348 24.1797 25.5348 17C25.5348 9.82024 19.9852 4 13.1395 4ZM9.83237 23.2849H7.11085V14.0635H9.83237V23.2849ZM8.45864 12.8559C7.56982 12.8559 6.84928 12.0941 6.84928 11.1544C6.84928 10.2147 7.56992 9.45286 8.45864 9.45286C9.34736 9.45286 10.0679 10.2147 10.0679 11.1544C10.068 12.0941 9.34741 12.8559 8.45864 12.8559ZM20.0313 23.2849H17.3229V18.4444C17.3229 17.1168 16.8421 16.3758 15.8412 16.3758C14.7518 16.3758 14.1827 17.1476 14.1827 18.4444V23.2849H11.5725V14.0635H14.1827V15.3055C14.1827 15.3055 14.9679 13.7822 16.8322 13.7822C18.6967 13.7822 20.0313 14.9762 20.0313 17.446L20.0313 23.2849Z" fill="#0D0D0D"/>
<path d="M20.0313 23.2849H17.3229V18.4444C17.3229 17.1168 16.8421 16.3758 15.8412 16.3758C14.7518 16.3758 14.1827 17.1476 14.1827 18.4444V23.2849H11.5725V14.0635H14.1827V15.3055C14.1827 15.3055 14.9679 13.7822 16.8322 13.7822C18.6967 13.7822 20.0313 14.9762 20.0313 17.446L20.0313 23.2849Z" fill="white"/>
<path d="M9.83237 23.2849H7.11085V14.0635H9.83237V23.2849Z" fill="white"/>
<path d="M8.45864 12.8559C7.56982 12.8559 6.84928 12.0941 6.84928 11.1544C6.84928 10.2147 7.56992 9.45286 8.45864 9.45286C9.34736 9.45286 10.0679 10.2147 10.0679 11.1544C10.068 12.0941 9.34741 12.8559 8.45864 12.8559Z" fill="white"/>
<path d="M10.4429 11.1544C10.4429 10.0275 9.57388 9.07786 8.45864 9.07786C7.34342 9.07786 6.47428 10.0275 6.47428 11.1544C6.47428 12.2812 7.34331 13.2309 8.45864 13.2309C9.57392 13.2309 10.443 12.2813 10.4429 11.1544ZM10.4429 11.1544H10.0679H10.4429ZM20.4063 23.6599L20.4063 23.2849L20.4063 17.446C20.4063 16.1455 20.0542 15.1276 19.4051 14.4321C18.7535 13.7339 17.846 13.4072 16.8322 13.4072C15.7884 13.4072 15.0409 13.8363 14.5595 14.2633C14.5589 14.2638 14.5583 14.2644 14.5577 14.2649V14.0635V13.6885H14.1827H11.5725H11.1975V14.0635V23.2849V23.6599H11.5725H14.1827H14.5577V23.2849V18.4444C14.5577 17.8436 14.6905 17.4204 14.8985 17.1552C15.0955 16.904 15.3937 16.7508 15.8412 16.7508C16.2357 16.7508 16.4838 16.889 16.65 17.127C16.8322 17.3878 16.9479 17.8153 16.9479 18.4444V23.2849V23.6599H17.3229H20.0313H20.4063ZM13.8077 15.3055L14.5149 15.477C14.5159 15.4775 14.5159 15.4776 14.5159 15.4776L14.5157 15.4778L14.5197 15.4707C14.5216 15.4673 14.5241 15.4629 14.5272 15.4575C14.5309 15.4509 14.5356 15.4429 14.5412 15.4336C14.5617 15.3998 14.5941 15.3488 14.6389 15.2865C14.729 15.1613 14.8673 14.9928 15.0572 14.8244C15.4345 14.4898 16.0117 14.1572 16.8322 14.1572C17.6829 14.1572 18.3749 14.4275 18.8568 14.9438C19.3411 15.4627 19.6563 16.2767 19.6563 17.446L19.6563 22.9099H17.6979V18.4444C17.6979 17.7459 17.5733 17.1391 17.2648 16.6975C16.9404 16.233 16.4476 16.0008 15.8412 16.0008C15.1993 16.0008 14.6683 16.2334 14.3084 16.6924C13.9595 17.1373 13.8077 17.7484 13.8077 18.4444V22.9099H11.9475V14.4385H13.8077V15.3055ZM9.83237 23.6599H10.2074V23.2849V14.0635V13.6885H9.83237H7.11085H6.73585V14.0635V23.2849V23.6599H7.11085H9.83237ZM9.6929 11.1544V11.1544C9.69294 11.907 9.1209 12.4809 8.45864 12.4809C7.79633 12.4809 7.22428 11.9069 7.22428 11.1544C7.22428 10.4018 7.79642 9.82786 8.45864 9.82786C9.12083 9.82786 9.6929 10.4018 9.6929 11.1544ZM1.11914 17C1.11914 10.0103 6.51741 4.375 13.1395 4.375C19.7614 4.375 25.1598 10.0103 25.1598 17C25.1598 23.9896 19.7615 29.6249 13.1395 29.6249C6.51741 29.6249 1.11914 23.9896 1.11914 17ZM9.45737 14.4385V22.9099H7.48585V14.4385H9.45737Z" stroke="#F9F9F9" stroke-width="0.75"/>
</svg>