<?xml version="1.0" standalone="no"?>
<!DOCTYPE svg PUBLIC "-//W3C//DTD SVG 20010904//EN"
 "http://www.w3.org/TR/2001/REC-SVG-20010904/DTD/svg10.dtd">
<svg version="1.0" xmlns="http://www.w3.org/2000/svg"
 width="25" height="30" viewBox="0 0 980.000000 982.000000"
 preserveAspectRatio="xMidYMid meet">

<g transform="translate(0.000000,982.000000) scale(0.100000,-0.100000)"
fill="#000000" stroke="none">
<path d="M4705 9814 c-702 -33 -1354 -198 -1960 -494 -1050 -514 -1884 -1385
-2343 -2445 -172 -398 -300 -846 -361 -1270 -54 -371 -54 -1018 0 -1390 114
-796 446 -1597 927 -2240 196 -261 524 -609 762 -806 786 -653 1647 -1020
2660 -1134 779 -87 1555 20 2315 320 148 58 459 208 620 299 567 321 1111 803
1510 1341 766 1029 1097 2338 914 3615 -211 1474 -1100 2794 -2386 3541 -157
92 -453 235 -634 307 -468 187 -957 301 -1459 341 -143 11 -461 20 -565 15z
m-1655 -2260 c97 -22 205 -80 277 -148 50 -46 73 -79 108 -150 58 -117 75
-188 75 -304 0 -115 -19 -192 -72 -294 -90 -173 -248 -281 -485 -329 -57 -12
-68 -11 -164 14 -150 40 -240 87 -324 172 -237 236 -247 621 -24 860 82 86
217 162 332 185 69 13 208 11 277 -6z m388 -3526 l2 -1778 -540 0 -540 0 0
1780 0 1780 538 -2 537 -3 3 -1777z m1762 1527 c0 -140 2 -255 6 -255 3 0 30
28 61 63 198 219 372 328 623 391 155 39 270 49 475 43 209 -6 328 -25 477
-74 319 -105 507 -327 608 -719 38 -147 46 -250 60 -799 9 -347 30 -1651 30
-1882 l0 -73 -555 0 -555 0 0 948 c-1 1215 -8 1368 -77 1494 -41 76 -112 142
-177 167 -79 29 -222 44 -356 37 -205 -10 -344 -60 -440 -157 -106 -108 -134
-190 -150 -450 -9 -145 -30 -1439 -30 -1876 l0 -163 -536 0 -536 0 4 1764 c1
970 7 1768 11 1773 13 12 234 19 670 21 l387 2 0 -255z"/>
</g>
</svg>
