<svg width="50" height="50" viewBox="0 0 50 50" fill="none" xmlns="http://www.w3.org/2000/svg">
<g clip-path="url(#clip0_589_39503)">
<g filter="url(#filter0_i_589_39503)">
<path d="M24.9974 4.16602C16.9453 4.16602 10.4141 10.6973 10.4141 18.7493C10.4141 29.6868 24.9974 45.8327 24.9974 45.8327C24.9974 45.8327 39.5807 29.6868 39.5807 18.7493C39.5807 10.6973 33.0495 4.16602 24.9974 4.16602ZM24.9974 23.9577C22.1224 23.9577 19.7891 21.6243 19.7891 18.7493C19.7891 15.8743 22.1224 13.541 24.9974 13.541C27.8724 13.541 30.2057 15.8743 30.2057 18.7493C30.2057 21.6243 27.8724 23.9577 24.9974 23.9577Z" fill="#BE111F"/>
</g>
</g>
<defs>
<filter id="filter0_i_589_39503" x="10.4141" y="4.16602" width="33.1641" height="45.666" filterUnits="userSpaceOnUse" color-interpolation-filters="sRGB">
<feFlood flood-opacity="0" result="BackgroundImageFix"/>
<feBlend mode="normal" in="SourceGraphic" in2="BackgroundImageFix" result="shape"/>
<feColorMatrix in="SourceAlpha" type="matrix" values="0 0 0 0 0 0 0 0 0 0 0 0 0 0 0 0 0 0 127 0" result="hardAlpha"/>
<feOffset dx="4" dy="4"/>
<feGaussianBlur stdDeviation="2"/>
<feComposite in2="hardAlpha" operator="arithmetic" k2="-1" k3="1"/>
<feColorMatrix type="matrix" values="0 0 0 0 1 0 0 0 0 1 0 0 0 0 1 0 0 0 0 0"/>
<feBlend mode="normal" in2="shape" result="effect1_innerShadow_589_39503"/>
</filter>
<clipPath id="clip0_589_39503">
<rect width="50" height="50" fill="white"/>
</clipPath>
</defs>
</svg>