<svg width="38" height="40" viewBox="0 0 38 40" fill="none" xmlns="http://www.w3.org/2000/svg">
<path d="M32.4773 31.8766L27.1764 26.6186C29.2341 24.0531 30.2305 20.7966 29.9609 17.519C29.6913 14.2413 28.1761 11.1915 25.7269 8.99662C23.2777 6.80177 20.0807 5.62873 16.7932 5.71868C13.5057 5.80864 10.3775 7.15477 8.05204 9.48026C5.72654 11.8058 4.38042 14.9339 4.29046 18.2214C4.2005 21.5089 5.37355 24.706 7.56839 27.1551C9.76324 29.6043 12.8131 31.1195 16.0907 31.3891C19.3684 31.6587 22.6248 30.6623 25.1904 28.6046L30.4484 33.8627C30.5812 33.9966 30.7392 34.1029 30.9134 34.1754C31.0875 34.2479 31.2742 34.2853 31.4628 34.2853C31.6515 34.2853 31.8382 34.2479 32.0123 34.1754C32.1864 34.1029 32.3445 33.9966 32.4773 33.8627C32.7348 33.5962 32.8788 33.2402 32.8788 32.8696C32.8788 32.4991 32.7348 32.143 32.4773 31.8766ZM17.1748 28.6046C15.1966 28.6046 13.2629 28.0181 11.6182 26.9191C9.97339 25.8201 8.69145 24.258 7.93445 22.4305C7.17745 20.6029 6.97938 18.5919 7.3653 16.6518C7.75122 14.7116 8.70378 12.9295 10.1025 11.5308C11.5013 10.132 13.2834 9.17944 15.2235 8.79352C17.1637 8.40761 19.1747 8.60567 21.0022 9.36267C22.8298 10.1197 24.3918 11.4016 25.4908 13.0464C26.5898 14.6911 27.1764 16.6249 27.1764 18.603C27.1764 21.2556 26.1227 23.7996 24.247 25.6752C22.3713 27.5509 19.8274 28.6046 17.1748 28.6046Z" fill="#0D0D0D"/>
</svg>