<svg width="34" height="34" viewBox="0 0 34 34" fill="none" xmlns="http://www.w3.org/2000/svg">
<circle cx="17" cy="17" r="17" fill="#0D0D0D"/>
<path d="M23.5691 21.6816L21.2504 19.3816C22.1504 18.2594 22.5863 16.8349 22.4684 15.4012C22.3504 13.9674 21.6877 12.6334 20.6163 11.6733C19.545 10.7132 18.1465 10.2001 16.7084 10.2394C15.2704 10.2788 13.9021 10.8676 12.8848 11.8848C11.8676 12.9021 11.2788 14.2704 11.2394 15.7084C11.2001 17.1465 11.7132 18.545 12.6733 19.6163C13.6334 20.6877 14.9674 21.3504 16.4012 21.4684C17.8349 21.5863 19.2594 21.1504 20.3816 20.2504L22.6816 22.5504C22.7397 22.6089 22.8088 22.6554 22.885 22.6872C22.9612 22.7189 23.0429 22.7352 23.1254 22.7352C23.2079 22.7352 23.2896 22.7189 23.3657 22.6872C23.4419 22.6554 23.511 22.6089 23.5691 22.5504C23.6818 22.4338 23.7447 22.2781 23.7447 22.116C23.7447 21.9539 23.6818 21.7982 23.5691 21.6816ZM16.8754 20.2504C16.0101 20.2504 15.1642 19.9938 14.4447 19.513C13.7253 19.0323 13.1645 18.349 12.8334 17.5496C12.5023 16.7502 12.4156 15.8705 12.5844 15.0218C12.7532 14.1732 13.1699 13.3936 13.7818 12.7818C14.3936 12.1699 15.1732 11.7532 16.0218 11.5844C16.8705 11.4156 17.7502 11.5023 18.5496 11.8334C19.349 12.1645 20.0323 12.7253 20.513 13.4447C20.9938 14.1642 21.2504 15.0101 21.2504 15.8754C21.2504 17.0357 20.7894 18.1485 19.969 18.969C19.1485 19.7894 18.0357 20.2504 16.8754 20.2504Z" fill="white"/>
</svg>