<svg width="42" height="43" viewBox="0 0 42 43" fill="none" xmlns="http://www.w3.org/2000/svg">
              <g clip-path="url(#clip0_589_39481)">
                <path
                  d="M21.0042 43.1786C32.4751 43.1786 41.7741 33.4729 41.7741 21.5004C41.7741 9.52791 32.4751 -0.177734 21.0042 -0.177734C9.53336 -0.177734 0.234375 9.52791 0.234375 21.5004C0.234375 33.4729 9.53336 43.1786 21.0042 43.1786Z"
                  fill="#0D0D0D" stroke="white" stroke-miterlimit="10" />
                <path
                  d="M8.20319 8.94141L18.1309 22.796L8.14062 34.0605H10.3892L19.1359 24.198L26.2028 34.0605H33.8543L23.3677 19.4267L32.6668 8.94141H30.4182L22.3632 18.0242L15.8547 8.94141H8.20319ZM11.5099 10.67H15.0249L30.5472 32.3319H27.0321L11.5099 10.67Z"
                  fill="white" />
              </g>
              <g clip-path="url(#clip1_589_39481)">
                <path
                  d="M21.0042 43.1786C32.4751 43.1786 41.7741 33.4729 41.7741 21.5004C41.7741 9.52791 32.4751 -0.177734 21.0042 -0.177734C9.53336 -0.177734 0.234375 9.52791 0.234375 21.5004C0.234375 33.4729 9.53336 43.1786 21.0042 43.1786Z"
                  fill="black" stroke="white" stroke-miterlimit="10" />
                <path
                  d="M8.20319 8.94141L18.1309 22.796L8.14062 34.0605H10.3892L19.1359 24.198L26.2028 34.0605H33.8543L23.3677 19.4267L32.6668 8.94141H30.4182L22.3632 18.0242L15.8547 8.94141H8.20319ZM11.5099 10.67H15.0249L30.5472 32.3319H27.0321L11.5099 10.67Z"
                  fill="white" />
              </g>
              <defs>
                <clipPath id="clip0_589_39481">
                  <rect width="42" height="43" fill="white" />
                </clipPath>
                <clipPath id="clip1_589_39481">
                  <rect width="42" height="43" fill="white" />
                </clipPath>
              </defs>
            </svg>