<svg width="86" height="91" viewBox="0 0 86 91" fill="none" xmlns="http://www.w3.org/2000/svg">
<path d="M43.1675 0.75C19.6351 0.75 0.558594 20.7571 0.558594 45.4374C0.558594 70.1177 19.6351 90.1248 43.1675 90.1248C66.6999 90.1248 85.7766 70.1177 85.7766 45.4374C85.7764 20.7571 66.6996 0.75 43.1675 0.75ZM31.7994 67.0417H22.4442V35.3433H31.7994V67.0417ZM27.0772 31.1922C24.0219 31.1922 21.545 28.5733 21.545 25.3433C21.545 22.1129 24.0222 19.4942 27.0772 19.4942C30.1322 19.4942 32.609 22.1129 32.609 25.3433C32.6092 28.5735 30.1323 31.1922 27.0772 31.1922ZM66.8581 67.0417H57.5482V50.4027C57.5482 45.8391 55.8953 43.2917 52.4546 43.2917C48.71 43.2917 46.7537 45.9448 46.7537 50.4027V67.0417H37.781V35.3433H46.7537V39.6126C46.7537 39.6126 49.4527 34.3764 55.8615 34.3764C62.2704 34.3764 66.8582 38.4805 66.8582 46.9708L66.8581 67.0417Z" fill="#0D0D0D"/>
<path d="M66.8581 67.0417H57.5482V50.4027C57.5482 45.8391 55.8953 43.2917 52.4546 43.2917C48.71 43.2917 46.7537 45.9448 46.7537 50.4027V67.0417H37.781V35.3433H46.7537V39.6126C46.7537 39.6126 49.4527 34.3764 55.8615 34.3764C62.2704 34.3764 66.8582 38.4805 66.8582 46.9708L66.8581 67.0417Z" fill="white"/>
<path d="M31.7994 67.0417H22.4442V35.3433H31.7994V67.0417Z" fill="white"/>
<path d="M27.0772 31.1922C24.0219 31.1922 21.545 28.5733 21.545 25.3433C21.545 22.1129 24.0222 19.4942 27.0772 19.4942C30.1322 19.4942 32.609 22.1129 32.609 25.3433C32.6092 28.5735 30.1323 31.1922 27.0772 31.1922Z" fill="white"/>
<path d="M46.3787 39.6126L47.0861 39.7841C47.0869 39.7846 47.0869 39.7846 47.0869 39.7846L47.087 39.7844L47.0877 39.7831L47.0923 39.7745C47.0955 39.7684 47.1003 39.7596 47.1065 39.7482C47.1086 39.7445 47.1109 39.7404 47.1133 39.7361C47.1326 39.7013 47.1625 39.6489 47.2033 39.5812C47.285 39.4458 47.4099 39.2498 47.58 39.0134C47.9204 38.5402 48.44 37.9076 49.1531 37.275C50.5769 36.0122 52.7687 34.7514 55.8615 34.7514C58.9843 34.7514 61.6258 35.7493 63.489 37.7456C65.3547 39.7446 66.4832 42.7912 66.4832 46.9708L66.4831 66.6667H57.9232V50.4027C57.9232 48.0862 57.5055 46.2188 56.5991 44.9211C55.6767 43.6005 54.2809 42.9167 52.4546 42.9167C50.4851 42.9167 48.9435 43.6196 47.9048 44.9441C46.8772 46.2544 46.3787 48.1262 46.3787 50.4027V66.6667H38.156V35.7183H46.3787V39.6126ZM48.6555 36.714C47.9951 37.2997 47.4899 37.8854 47.1287 38.3621V35.3433V34.9683H46.7537H37.781H37.406V35.3433V67.0417V67.4167H37.781H46.7537H47.1287V67.0417V50.4027C47.1287 48.2213 47.6083 46.5376 48.495 45.4069C49.3707 44.2903 50.6795 43.6667 52.4546 43.6667C54.069 43.6667 55.2201 44.2565 55.9842 45.3506C56.7644 46.4675 57.1732 48.1556 57.1732 50.4027V67.0417V67.4167H57.5482H66.8581H67.2331V67.0417L67.2332 46.9708C67.2332 42.6601 66.0678 39.4095 64.0373 37.2339C62.0044 35.0557 59.1475 34.0014 55.8615 34.0014C52.5454 34.0014 50.1834 35.3587 48.6555 36.714ZM31.7994 67.4167H32.1744V67.0417V35.3433V34.9683H31.7994H22.4442H22.0692V35.3433V67.0417V67.4167H22.4442H31.7994ZM0.933594 45.4374C0.933594 20.9471 19.8588 1.125 43.1675 1.125C66.4758 1.125 85.4014 20.9471 85.4016 45.4374C85.4016 69.9277 66.4762 89.7498 43.1675 89.7498C19.8588 89.7498 0.933594 69.9277 0.933594 45.4374ZM27.0772 30.8172C24.2484 30.8172 21.92 28.3862 21.92 25.3433C21.92 22.3001 24.2487 19.8692 27.0772 19.8692C29.9056 19.8692 32.234 22.3 32.234 25.3433C32.2342 28.3863 29.9058 30.8172 27.0772 30.8172ZM21.17 25.3433C21.17 28.7605 23.7954 31.5672 27.0772 31.5672C30.3588 31.5672 32.9842 28.7606 32.984 25.3433C32.984 21.9258 30.3587 19.1192 27.0772 19.1192C23.7957 19.1192 21.17 21.9257 21.17 25.3433ZM31.4244 35.7183V66.6667H22.8192V35.7183H31.4244Z" stroke="#F9F9F9" stroke-width="0.75"/>
</svg>
