<svg width="320" height="320" viewBox="0 0 320 320" fill="none" xmlns="http://www.w3.org/2000/svg">
<g filter="url(#filter0_ii_244_2499)">
<path d="M133.333 220L213.333 160L133.333 100V220ZM160 26.6667C86.3332 26.6667 26.6665 86.3333 26.6665 160C26.6665 233.667 86.3332 293.333 160 293.333C233.667 293.333 293.333 233.667 293.333 160C293.333 86.3333 233.667 26.6667 160 26.6667ZM160 266.667C101.2 266.667 53.3332 218.8 53.3332 160C53.3332 101.2 101.2 53.3333 160 53.3333C218.8 53.3333 266.667 101.2 266.667 160C266.667 218.8 218.8 266.667 160 266.667Z" fill="#0D0D0D"/>
</g>
<defs>
<filter id="filter0_ii_244_2499" x="22.6665" y="26.6667" width="274.667" height="270.667" filterUnits="userSpaceOnUse" color-interpolation-filters="sRGB">
<feFlood flood-opacity="0" result="BackgroundImageFix"/>
<feBlend mode="normal" in="SourceGraphic" in2="BackgroundImageFix" result="shape"/>
<feColorMatrix in="SourceAlpha" type="matrix" values="0 0 0 0 0 0 0 0 0 0 0 0 0 0 0 0 0 0 127 0" result="hardAlpha"/>
<feOffset dx="12" dy="4"/>
<feGaussianBlur stdDeviation="2"/>
<feComposite in2="hardAlpha" operator="arithmetic" k2="-1" k3="1"/>
<feColorMatrix type="matrix" values="0 0 0 0 1 0 0 0 0 1 0 0 0 0 1 0 0 0 0.25 0"/>
<feBlend mode="normal" in2="shape" result="effect1_innerShadow_244_2499"/>
<feColorMatrix in="SourceAlpha" type="matrix" values="0 0 0 0 0 0 0 0 0 0 0 0 0 0 0 0 0 0 127 0" result="hardAlpha"/>
<feOffset dx="-12" dy="4"/>
<feGaussianBlur stdDeviation="2"/>
<feComposite in2="hardAlpha" operator="arithmetic" k2="-1" k3="1"/>
<feColorMatrix type="matrix" values="0 0 0 0 0 0 0 0 0 0 0 0 0 0 0 0 0 0 0.25 0"/>
<feBlend mode="normal" in2="effect1_innerShadow_244_2499" result="effect2_innerShadow_244_2499"/>
</filter>
</defs>
</svg>