<svg width="29" height="33" viewBox="0 0 28 32" fill="none" xmlns="http://www.w3.org/2000/svg">
<path d="M14.0698 4.5C20.6172 4.5 25.9651 10.0737 25.9651 17C25.9651 23.9263 20.6172 29.5 14.0698 29.5C7.52234 29.5 2.17444 23.9263 2.17444 17C2.17444 10.0737 7.52234 4.5 14.0698 4.5Z" fill="#0D0D0D" stroke="white"/>
<path fill-rule="evenodd" clip-rule="evenodd" d="M20.1322 11.6595C20.7958 11.8469 21.3191 12.3957 21.4978 13.0918C21.8296 14.3634 21.8169 17.0137 21.8169 17.0137C21.8169 17.0137 21.8169 19.6506 21.4978 20.9223C21.3191 21.6183 20.7958 22.1671 20.1322 22.3545C18.9197 22.6891 14.0698 22.6891 14.0698 22.6891C14.0698 22.6891 9.23267 22.6891 8.00744 22.3411C7.34377 22.1537 6.8205 21.6049 6.64183 20.9089C6.32275 19.6506 6.32275 17.0003 6.32275 17.0003C6.32275 17.0003 6.32275 14.3634 6.64183 13.0918C6.8205 12.3957 7.35653 11.8335 8.00744 11.6461C9.21991 11.3115 14.0698 11.3115 14.0698 11.3115C14.0698 11.3115 18.9197 11.3115 20.1322 11.6595ZM16.5586 17.0003L12.5255 19.4365V14.5642L16.5586 17.0003Z" fill="white"/>
</svg>