<svg width="41" height="43" viewBox="0 0 41 43" fill="none"
              xmlns="http://www.w3.org/2000/svg">
              <g clip-path="url(#clip0_589_39472)">
                <path
                  d="M41 21.5C41 9.62588 31.8218 0 20.5 0C9.17816 0 0 9.62588 0 21.5C0 33.3741 9.17816 43 20.5 43C31.8218 43 41 33.3741 41 21.5Z"
                  fill="#0D0D0D" />
                <path fill-rule="evenodd" clip-rule="evenodd"
                  d="M30.5261 12.6674C31.6237 12.9772 32.4892 13.8849 32.7847 15.036C33.3335 17.1391 33.3124 21.5223 33.3124 21.5223C33.3124 21.5223 33.3124 25.8834 32.7847 27.9865C32.4892 29.1376 31.6237 30.0453 30.5261 30.3552C28.5209 30.9086 20.4999 30.9086 20.4999 30.9086C20.4999 30.9086 12.5 30.9086 10.4737 30.333C9.3761 30.0231 8.5107 29.1155 8.2152 27.9644C7.6875 25.8834 7.6875 21.5002 7.6875 21.5002C7.6875 21.5002 7.6875 17.1391 8.2152 15.036C8.5107 13.8849 9.3972 12.9551 10.4737 12.6452C12.4789 12.0918 20.4999 12.0918 20.4999 12.0918C20.4999 12.0918 28.5209 12.0918 30.5261 12.6674ZM24.616 21.5002L17.9459 25.5292V17.4712L24.616 21.5002Z"
                  fill="white" />
              </g>
              <g clip-path="url(#clip1_589_39472)">
                <path
                  d="M41 21.5C41 9.62588 31.8218 0 20.5 0C9.17816 0 0 9.62588 0 21.5C0 33.3741 9.17816 43 20.5 43C31.8218 43 41 33.3741 41 21.5Z"
                  fill="#FF0000" />
                <path fill-rule="evenodd" clip-rule="evenodd"
                  d="M30.5261 12.6674C31.6237 12.9772 32.4892 13.8849 32.7847 15.036C33.3335 17.1391 33.3124 21.5223 33.3124 21.5223C33.3124 21.5223 33.3124 25.8834 32.7847 27.9865C32.4892 29.1376 31.6237 30.0453 30.5261 30.3552C28.5209 30.9086 20.4999 30.9086 20.4999 30.9086C20.4999 30.9086 12.5 30.9086 10.4737 30.333C9.3761 30.0231 8.5107 29.1155 8.2152 27.9644C7.6875 25.8834 7.6875 21.5002 7.6875 21.5002C7.6875 21.5002 7.6875 17.1391 8.2152 15.036C8.5107 13.8849 9.3972 12.9551 10.4737 12.6452C12.4789 12.0918 20.4999 12.0918 20.4999 12.0918C20.4999 12.0918 28.5209 12.0918 30.5261 12.6674ZM24.616 21.5002L17.9459 25.5292V17.4712L24.616 21.5002Z"
                  fill="white" />
              </g>
              <defs>
                <clipPath id="clip0_589_39472">
                  <rect width="41" height="43" fill="white" />
                </clipPath>
                <clipPath id="clip1_589_39472">
                  <rect width="41" height="43" fill="white" />
                </clipPath>
              </defs>
            </svg>